<?xml version="1.0" encoding="UTF-8"?>
<svg width="1200pt" height="1200pt" version="1.1" viewBox="0 0 1200 1200" xmlns="http://www.w3.org/2000/svg">
 <g fill-rule="evenodd">
  <path d="m955.16 211.22c-58.273-12.508-114.64-5.1758-175.5-9 0.75-54-7.9688-79.914-40.48-85.5-13.332-2.2891-85.352 17.062-72.02-13.5-9.207 2.6445-19.539 9.4492-4.4805 13.5-25.5 13.367-7.3125-55.594-49.5-40.5v-4.5h-13.5c10.855 13.105-20.961 12.355-31.5 18 2.9258-4.5742 10.352-4.6484 9-13.5-22.07 3.4297-23.305 27.695-40.5 36-56.512 4.0859-137.4-25.105-121.5 67.5-21.242 11.758-51.395 14.625-76.5 22.5 1.9688-5.5312 5.7578-9.2422 13.5-9-30.75-0.1875-113.51-22.82-121.5 22.5h-4.5v270c15.207 199.88-2.6797 423.41 9 621 128.44 28.707 270.99-1.0312 409.5 0 100.57 0.73047 201.05 7.6484 305.98-4.5 21.375-276.13-4.0508-579.88 4.5-891zm-486-40.5c45.094 6.0742 67.688-4.8359 81 18 11.625-10.875 30.75-22.836 49.5-13.5 1.2578-10.258-1.0859-16.914-9-18 8.5117-15.301 15.77 7.707 27 4.5-1.1055 4.8945-8.9453 3.0547-9 9 7.2578 6.2422 17.719 9.3008 22.5 18 23.719-5.7578 73.633-6.0742 90.02-4.5-9 30.711 2.1758 52.445-4.5 85.5-78.414 15.75-159.15 2.3047-247.5 13.5-0.019532-37.5-0.019532-75-0.019532-112.5zm445.5 900c-145.27-5.9258-215.83-13.5-355.5-13.52-14.438 3.957-9.3359-11.664-18-13.5-19.82 1.1641-26.477 15.523-49.5 13.5 1.1055-4.875 8.9453-3.0391 9-8.9805-62.156 14.137-125.25-8.1172-202.5 4.5-0.16797-22.312-10.387-34.633-13.5-54 9.168 2.5117 8.832 13.539 18 4.4805-9.9766-266.77-9.8633-486.94-9-747 46.895 2.1758 89.852-3.7695 126 0-4.2188 29.062-2.8672 53.645 13.5 72 139.88 4.5938 208.55-11.961 324-4.5 18.094-11.906 12.938-47.043 13.5-76.5 60.188-5.2891 92.211 1.7266 139.5-4.5 9.2812 256.82 13.969 547.89 4.5 828.02z"/>
  <path d="m761.66 544.22c-50.25 5.625-58.125 43.574-94.5 49.5 12.918 4.6328-13.367 30.918-18 18 15.805-12.637 4.0117-3.543-8.9805 0-3.4492 14.344-32.457 41.512-58.5 58.5-5.2109 15.227 3.168 19.199-4.5 27-0.50781-5.4922-1.3516-10.648-9-9-6.5078 12.992-17.887 21.113-27 31.5-24.02-29.98-54.77-53.211-85.5-76.48-62.531 6.5234-28.312 56.195-9 76.48 28.668 30.148 79.668 71.699 99 72.02 79.648-73.367 160.27-145.73 225-234-6.3398-1.1836-5.1406-9.8828-9.0195-13.52z"/>
 </g>
</svg>
