<?xml version="1.0" encoding="UTF-8"?>
<svg width="1200pt" height="1200pt" version="1.1" viewBox="0 0 1200 1200" xmlns="http://www.w3.org/2000/svg">
 <path d="m808.08 190.8c-7.6602-9.1914-18.836-14.734-30.793-15.273-11.953-0.53906-23.582 3.9727-32.043 12.434-8.4648 8.4609-12.977 20.09-12.434 32.047 0.53906 11.953 6.082 23.129 15.27 30.793l306.12 306.48h-1011.8c-14.703 0.77734-27.969 9.0742-35.105 21.957-7.1328 12.879-7.1328 28.523 0 41.406 7.1367 12.879 20.402 21.176 35.105 21.957h1011.8l-306.6 306.12c-7.7188 8.082-12.023 18.828-12.023 30 0 11.176 4.3047 21.918 12.023 30 7.9453 7.9727 18.742 12.457 30 12.457 11.258 0 22.051-4.4844 30-12.457l379.2-379.2c8.1523-7.8477 12.762-18.68 12.762-30 0-11.32-4.6094-22.148-12.762-30z"/>
</svg>
