<?xml version="1.0" encoding="UTF-8"?>
<svg width="1200pt" height="1200pt" version="1.1" viewBox="0 0 1200 1200" xmlns="http://www.w3.org/2000/svg">
 <path d="m172.44 1196.8c4.1172 2.125 8.6836 3.2383 13.32 3.2383 5.7812-0.007812 11.43-1.7656 16.199-5.0391l828.6-570.96c7.7383-5.3281 12.359-14.125 12.359-23.52s-4.6211-18.191-12.359-23.52l-828.6-571.92c-5.8047-3.9727-12.867-5.6758-19.844-4.7812-6.9766 0.89063-13.383 4.3164-17.996 9.625-4.6172 5.3047-7.125 12.125-7.043 19.156v1142.4c0.003906 5.2188 1.4375 10.34 4.1445 14.805 2.707 4.4648 6.5859 8.1016 11.219 10.516z"/>
</svg>
