<?xml version="1.0" encoding="UTF-8"?>
<svg width="1200pt" height="1200pt" version="1.1" viewBox="0 0 1200 1200" xmlns="http://www.w3.org/2000/svg">
 <g fill="#fff">
  <path d="m372 271.01c0 66.273-53.727 120-120 120s-120-53.727-120-120c0-66.273 53.727-120 120-120s120 53.727 120 120"/>
  <path d="m720 271.01c0 66.273-53.727 120-120 120s-120-53.727-120-120c0-66.273 53.727-120 120-120s120 53.727 120 120"/>
  <path d="m1068 271.01c0 66.273-53.727 120-120 120-66.273 0-120-53.727-120-120 0-66.273 53.727-120 120-120 66.273 0 120 53.727 120 120"/>
  <path d="m372 600c0 66.273-53.727 120-120 120s-120-53.727-120-120 53.727-120 120-120 120 53.727 120 120"/>
  <path d="m720 600c0 66.273-53.727 120-120 120s-120-53.727-120-120 53.727-120 120-120 120 53.727 120 120"/>
  <path d="m1068 600c0 66.273-53.727 120-120 120-66.273 0-120-53.727-120-120s53.727-120 120-120c66.273 0 120 53.727 120 120"/>
  <path d="m372 929.02c0 66.277-53.734 119.98-120 119.98-66.277 0-120-53.699-120-119.98 0-66.301 53.723-120.02 120-120.02 66.266 0 120 53.723 120 120.02z"/>
  <path d="m720 929.02c0 66.277-53.734 119.98-120 119.98s-120-53.699-120-119.98c0-66.301 53.734-120.02 120-120.02s120 53.723 120 120.02z"/>
  <path d="m1068 929.02c0 66.277-53.746 119.98-120 119.98-66.277 0-120-53.699-120-119.98 0-66.301 53.723-120.02 120-120.02 66.254 0 120 53.723 120 120.02z"/>
 </g>
</svg>
