<?xml version="1.0" encoding="UTF-8"?>
<svg width="1200pt" height="1200pt" version="1.1" viewBox="0 0 1200 1200" xmlns="http://www.w3.org/2000/svg">
 <path d="m30 600c0 314.4 255.6 570 570 570s570-255.6 570-570-255.6-570-570-570-570 255.6-570 570zm685.2-248.4c8.3984 8.3984 12 18 12 28.801 0 10.801-3.6016 21.602-12 28.801l-189.6 190.8 189.6 189.6c15.602 15.602 15.602 42 0 57.602s-42 15.602-57.602 0l-219.6-218.4c-15.602-15.602-15.602-42 0-57.602l219.6-219.6c15.598-15.598 42-15.598 57.598 0.003906z" fill="#4dd8cc"/>
</svg>
