<?xml version="1.0" encoding="UTF-8"?>
<svg width="1200pt" height="1200pt" version="1.1" viewBox="0 0 1200 1200" xmlns="http://www.w3.org/2000/svg">
 <path d="m599.74 32.812c156.99 0 298.45 63.75 401.32 166.11 102.34 102.88 166.11 244.33 166.11 400.8 0 157.01-63.77 298.48-166.11 401.34-102.88 102.36-244.33 166.11-401.32 166.11-156.49 0-297.94-63.75-400.82-166.11-102.34-102.86-166.11-244.33-166.11-401.34 0-156.47 63.77-297.92 166.11-400.8 102.9-102.36 244.35-166.11 400.82-166.11zm0 202.01c55.18 0 104.48 21.957 140.38 57.863 35.887 35.906 58.387 85.727 58.387 140.38s-22.5 104.49-58.387 140.4c-35.906 35.887-85.199 57.863-140.38 57.863-54.676 0-103.97-21.977-139.88-57.863-35.887-35.906-58.387-85.742-58.387-140.4s22.5-104.48 58.387-140.38c35.906-35.906 85.199-57.863 139.88-57.863zm-181.65 460.28h363.82c57.883 0 110.38 23.586 148.43 61.633 35.906 36.43 58.949 85.727 61.086 139.86 62.699-81.992 100.2-184.86 100.2-296.87 0-135.54-55.18-258.26-144.13-347.23-88.949-88.949-211.67-144.15-347.76-144.15-135.56 0-258.28 55.18-347.25 144.15-88.906 88.965-144.11 211.68-144.11 347.23 0 112.01 37.5 214.88 99.656 296.87 2.1367-54.133 25.707-103.43 61.613-139.86 38.062-38.043 90.562-61.629 148.44-61.629z" fill="#4dd8cc"/>
</svg>
