<?xml version="1.0" encoding="UTF-8"?>
<svg width="1200pt" height="1200pt" version="1.1" viewBox="0 0 1200 1200" xmlns="http://www.w3.org/2000/svg">
 <g fill="#fff">
  <path d="m489.37 230.63c0-13.125 11.25-24.375 24.375-24.375h174.37c13.125 0 24.375 11.25 24.375 24.375v46.875h37.5v-46.875c0-33.75-28.125-61.875-61.875-61.875h-174.37c-33.75 0-61.875 28.125-61.875 61.875v46.875h37.5z"/>
  <path d="m316.87 313.13v91.875h566.26v-91.875z"/>
  <path d="m360 900c0 71.25 58.125 131.26 131.26 131.26h217.5c73.125 0 131.26-58.125 131.26-131.26v-457.5h-480zm350.63-346.87c0-9.375 9.375-18.75 18.75-18.75s18.75 9.375 18.75 18.75v365.63c0 9.375-9.375 18.75-18.75 18.75s-18.75-9.375-18.75-18.75zm-129.37-43.125c0-9.375 9.375-18.75 18.75-18.75s18.75 9.375 18.75 18.75v451.87c0 11.25-9.375 18.75-18.75 18.75s-18.75-7.5-18.75-18.75zm-129.37 43.125c0-9.375 7.5-18.75 18.75-18.75 9.375 0 18.75 9.375 18.75 18.75v365.63c0 9.375-9.375 18.75-18.75 18.75-11.25 0-18.75-9.375-18.75-18.75z"/>
 </g>
</svg>
