<?xml version="1.0" encoding="UTF-8"?>
<svg width="1200pt" height="1200pt" version="1.1" viewBox="0 0 1200 1200" xmlns="http://www.w3.org/2000/svg">
 <g fill="#4dd8cc">
  <path d="m498.32 788.83-87.148-87.148c-3.4062-3.4062-8.9297-3.4062-12.336 0l-223.37 223.37-104.05-104.05c-1.9141-1.9141-4.7891-2.4844-7.2891-1.4492-2.5 1.0352-4.1289 3.4727-4.1289 6.1758v305.32c0 2.3711 0.94141 4.6484 2.6211 6.3281 1.6797 1.6797 3.957 2.6211 6.3281 2.6211h305.32c2.7031 0 5.1406-1.6289 6.1758-4.1289 1.0352-2.5 0.46484-5.375-1.4492-7.2891l-104.05-104.05 223.37-223.37c3.4062-3.4062 3.4062-8.9297 0-12.336z"/>
  <path d="m1131.1 60h-305.32c-2.7031 0-5.1406 1.6289-6.1758 4.1289-1.0352 2.5-0.46484 5.375 1.4492 7.2891l104.05 104.05-223.37 223.37c-3.4062 3.4062-3.4062 8.9297 0 12.336l87.148 87.152c3.4062 3.4062 8.9297 3.4062 12.336 0l223.37-223.37 104.04 104.05c1.9141 1.9141 4.7891 2.4844 7.2891 1.4492 2.5-1.0352 4.1289-3.4727 4.1289-6.1758v-305.32c0-2.3711-0.94141-4.6484-2.6211-6.3281-1.6797-1.6797-3.957-2.6211-6.3281-2.6211z"/>
 </g>
</svg>
