<?xml version="1.0" encoding="UTF-8"?>
<svg width="1200pt" height="1200pt" version="1.1" viewBox="0 0 1200 1200" xmlns="http://www.w3.org/2000/svg">
 <g fill="#4dd8cc">
  <path d="m992.4 424.8c-129.6-100.8-266.4-153.6-392.4-153.6-303.6 0-542.4 294-552 306-5.2656 6.4336-8.1406 14.488-8.1406 22.801s2.875 16.367 8.1406 22.801c47.539 56.414 101.05 107.51 159.6 152.4 129.6 100.8 266.4 153.6 392.4 153.6 303.6 0 542.4-294 552-307.2 4.9648-6.3359 7.6602-14.152 7.6602-22.203 0-8.0469-2.6953-15.863-7.6602-22.199-47.547-56.41-101.06-107.51-159.6-152.4zm-392.4 420c-64.926 0-127.19-25.793-173.1-71.699-45.906-45.91-71.699-108.18-71.699-173.1s25.793-127.19 71.699-173.1c45.91-45.906 108.18-71.699 173.1-71.699s127.19 25.793 173.1 71.699c45.906 45.91 71.699 108.18 71.699 173.1-0.31641 64.828-26.207 126.91-72.051 172.75-45.84 45.844-107.92 71.734-172.75 72.051z"/>
  <path d="m600 466.8c-35.328 0-69.207 14.031-94.188 39.012s-39.012 58.859-39.012 94.188 14.031 69.207 39.012 94.188 58.859 39.012 94.188 39.012 69.207-14.031 94.188-39.012 39.012-58.859 39.012-94.188-14.031-69.207-39.012-94.188-58.859-39.012-94.188-39.012z"/>
 </g>
</svg>
